<svg class="svg-icon" style="width: 1em; height: 1em;vertical-align: middle;fill: currentColor;overflow: hidden;" viewBox="0 0 1024 1024" version="1.1" xmlns="http://www.w3.org/2000/svg"><path d="M807.8848 753.5616a48.2304 48.2304 0 0 1-49.2032-47.0528V330.752a49.2544 49.2544 0 0 1 98.304-4.4544V706.56a48.128 48.128 0 0 1-49.1008 47.0528z m147.4048-93.952a48.128 48.128 0 0 1-49.1008-47.0528V424.96a47.872 47.872 0 0 1 46.848-49.2032 48.384 48.384 0 0 1 51.456 44.7488V612.8128a48.2304 48.2304 0 0 1-49.2032 47.0528z m-737.28 140.9536a48.128 48.128 0 0 1-49.0496-47.0016V283.8016a47.8208 47.8208 0 0 1 46.7968-49.152 48.3328 48.3328 0 0 1 51.456 44.7488 31.5904 31.5904 0 0 1 0 4.4032v469.76a48.128 48.128 0 0 1-49.2032 47.0016z m147.5072 187.904a48.0768 48.0768 0 0 1-49.1008-46.9504V95.9488a49.2544 49.2544 0 0 1 98.304-4.4544 32.3072 32.3072 0 0 1 0 4.4544v845.4656a48.128 48.128 0 0 1-49.2032 47.0528z m147.5072-187.904a48.128 48.128 0 0 1-49.2032-47.0016V283.8016a47.872 47.872 0 0 1 46.848-49.152 48.384 48.384 0 0 1 51.2 44.7488v474.1632a48.1792 48.1792 0 0 1-49.2032 47.0016z m147.456-140.9536a48.1792 48.1792 0 0 1-48.8448-46.9504V424.96a49.2544 49.2544 0 0 1 98.304-4.4544V612.8128a48.0768 48.0768 0 0 1-48.9984 47.0528H660.48z m-589.7216 0a48.1792 48.1792 0 0 1-49.2032-47.0528V424.96a47.9232 47.9232 0 0 1 46.848-49.2032 48.384 48.384 0 0 1 51.456 44.7488V612.8128a48.128 48.128 0 0 1-49.1008 46.7968z" fill="#232632" /></svg>